# Blender v2.80 (sub 75) OBJ File: 'edge-corner.blend'
# www.blender.org
mtllib edge-corner.mtl
o Cube
v 0.500000 0.500000 -0.500000
v 0.500000 0.400000 -0.400000
v -0.500000 0.500000 -0.500000
v -0.500000 0.500000 -0.400000
v 0.500000 0.500000 -0.400000
v -0.500000 0.500000 0.500000
v 0.500000 0.400000 0.500000
v -0.400000 0.500000 -0.400000
v -0.400000 0.400000 -0.400000
v -0.400000 0.500000 -0.500000
v -0.400000 0.400000 0.500000
v -0.400000 0.500000 0.500000
vt 0.250000 0.750000
vt 0.250000 0.750000
vt 0.250000 0.750000
vt 0.250000 0.750000
vt 0.750000 0.750000
vt 0.750000 0.750000
vt 0.750000 0.750000
vt 0.750000 0.750000
vt 0.750000 0.750000
vt 0.750000 0.750000
vt 0.750000 0.750000
vt 0.750000 0.750000
vt 0.750000 0.750000
vt 0.750000 0.750000
vt 0.750000 0.750000
vn 0.0000 1.0000 0.0000
vn 0.0000 0.0000 1.0000
vn 1.0000 0.0000 0.0000
usemtl Material
s off
f 11/1/1 7/2/1 2/3/1 9/4/1
f 10/5/1 3/6/1 4/7/1 8/8/1
f 1/9/1 10/5/1 8/8/1 5/10/1
f 5/10/2 8/8/2 9/11/2 2/12/2
f 9/11/3 8/8/3 12/13/3 11/14/3
f 8/8/1 4/7/1 6/15/1 12/13/1
