# Blender v2.80 (sub 75) OBJ File: 'middle-line.blend'
# www.blender.org
mtllib middle-line.mtl
o Cube
v 0.500000 0.400000 -0.500000
v 0.500000 0.400000 0.500000
v -0.500000 0.400000 -0.500000
v -0.500000 0.400000 0.500000
v 0.050000 0.406796 -0.245000
v 0.050000 0.406796 0.245000
v -0.050000 0.406796 -0.245000
v -0.050000 0.406796 0.245000
vt 0.125000 0.875000
vt 0.125000 0.875000
vt 0.125000 0.875000
vt 0.125000 0.875000
vt 0.375000 0.875000
vt 0.375000 0.875000
vt 0.375000 0.875000
vt 0.375000 0.875000
vn 0.0000 1.0000 0.0000
usemtl Material
s off
f 4/1/1 2/2/1 1/3/1 3/4/1
f 8/5/1 6/6/1 5/7/1 7/8/1
