# Blender v2.80 (sub 75) OBJ File: 'bottle.blend'
# www.blender.org
mtllib bottle.mtl
o Cube
v -0.028626 -0.028626 0.028626
v -0.009908 0.165509 0.009908
v -0.028626 -0.028626 -0.028626
v -0.009908 0.165509 -0.009908
v 0.028626 -0.028626 0.028626
v 0.009908 0.165509 0.009908
v 0.028626 -0.028626 -0.028626
v 0.009908 0.165509 -0.009908
v -0.028626 0.112572 0.028626
v -0.028626 0.112572 -0.028626
v 0.028626 0.112572 -0.028626
v 0.028626 0.112572 0.028626
v -0.009908 0.208674 0.009908
v -0.009908 0.208674 -0.009908
v 0.009908 0.208674 -0.009908
v 0.009908 0.208674 0.009908
vt 0.250000 0.250000
vt 0.250000 0.250000
vt 0.250000 0.250000
vt 0.250000 0.250000
vt 0.250000 0.250000
vt 0.250000 0.250000
vt 0.250000 0.250000
vt 0.250000 0.250000
vt 0.250000 0.250000
vt 0.250000 0.250000
vt 0.250000 0.250000
vt 0.250000 0.250000
vt 0.250000 0.250000
vt 0.250000 0.250000
vt 0.250000 0.250000
vt 0.250000 0.250000
vn -1.0000 0.0000 0.0000
vn 0.0000 0.0000 -1.0000
vn 1.0000 0.0000 0.0000
vn 0.0000 0.0000 1.0000
vn 0.0000 -1.0000 0.0000
vn -0.9428 0.3334 0.0000
vn 0.0000 0.3334 -0.9428
vn 0.9428 0.3334 0.0000
vn 0.0000 0.3334 0.9428
vn 0.0000 1.0000 0.0000
usemtl Material
s off
f 1/1/1 9/2/1 10/3/1 3/4/1
f 3/4/2 10/3/2 11/5/2 7/6/2
f 7/6/3 11/5/3 12/7/3 5/8/3
f 5/8/4 12/7/4 9/2/4 1/1/4
f 3/4/5 7/6/5 5/8/5 1/1/5
f 6/9/3 8/10/3 15/11/3 16/12/3
f 2/13/6 4/14/6 10/3/6 9/2/6
f 4/14/7 8/10/7 11/5/7 10/3/7
f 8/10/8 6/9/8 12/7/8 11/5/8
f 6/9/9 2/13/9 9/2/9 12/7/9
f 15/11/10 14/15/10 13/16/10 16/12/10
f 4/14/1 2/13/1 13/16/1 14/15/1
f 2/13/4 6/9/4 16/12/4 13/16/4
f 8/10/2 4/14/2 14/15/2 15/11/2
