# Blender v2.80 (sub 75) OBJ File: 'gramophone.blend'
# www.blender.org
mtllib gramophone.mtl
o Cube
v 0.177226 0.060800 -0.177226
v 0.177226 -0.060800 -0.177226
v 0.177226 0.060800 0.177226
v 0.177226 -0.060800 0.177226
v -0.177226 0.060800 -0.177226
v -0.177226 -0.060800 -0.177226
v -0.177226 0.060800 0.177226
v -0.177226 -0.060800 0.177226
v 0.000000 0.079411 -0.145946
v -0.103199 0.079411 -0.103199
v -0.145946 0.079411 0.000000
v -0.103199 0.079411 0.103199
v 0.000000 0.079411 0.145946
v 0.103199 0.079411 0.103199
v 0.145946 0.079411 -0.000000
v 0.103199 0.079411 -0.103199
v 0.000000 0.056358 -0.145946
v -0.103199 0.056358 -0.103199
v -0.145946 0.056358 0.000000
v -0.103199 0.056358 0.103199
v 0.000000 0.056358 0.145946
v 0.103199 0.056358 0.103199
v 0.145946 0.056358 -0.000000
v 0.103199 0.056358 -0.103199
v -0.000000 0.291508 -0.212472
v -0.097661 0.330266 -0.200887
v -0.138113 0.423836 -0.172918
v -0.097661 0.517406 -0.144950
v 0.000000 0.556164 -0.133365
v 0.097661 0.517406 -0.144950
v 0.138113 0.423836 -0.172918
v 0.097661 0.330266 -0.200887
v -0.004614 0.288710 -0.045561
v -0.061787 0.312372 -0.027226
v -0.082766 0.369498 -0.005746
v -0.055261 0.426623 0.006295
v 0.004614 0.450286 0.001844
v 0.061787 0.426623 -0.016491
v 0.082766 0.369498 -0.037971
v 0.055261 0.312372 -0.050012
v 0.036724 0.228056 0.069791
v 0.006393 0.240310 0.087068
v -0.001801 0.269893 0.107715
v 0.016942 0.299476 0.119638
v 0.051642 0.311730 0.115853
v 0.081974 0.299476 0.098576
v 0.090168 0.269893 0.077928
v 0.071424 0.240310 0.066005
v 0.066026 0.173517 0.120175
v 0.059493 0.175125 0.131480
v 0.062733 0.179006 0.143625
v 0.073847 0.182886 0.149496
v 0.086325 0.184494 0.145653
v 0.092858 0.182886 0.134349
v 0.089618 0.179006 0.122204
v 0.078504 0.175125 0.116333
v 0.083585 0.151828 0.124915
v 0.077116 0.151761 0.132467
v 0.077882 0.151753 0.142381
v 0.085433 0.151810 0.148851
v 0.095347 0.151898 0.148086
v 0.101816 0.151965 0.140534
v 0.101051 0.151973 0.130619
v 0.093500 0.151916 0.124150
v 0.085441 0.134607 0.114724
v 0.076518 0.127842 0.118297
v 0.075616 0.117362 0.123539
v 0.083262 0.109305 0.127380
v 0.094978 0.108391 0.127570
v 0.103901 0.115156 0.123998
v 0.104803 0.125636 0.118756
v 0.097157 0.133693 0.114914
v 0.069188 0.120554 -0.022330
v 0.064469 0.119583 -0.020491
v 0.062035 0.115396 -0.018720
v 0.063313 0.110445 -0.018055
v 0.067552 0.107630 -0.018885
v 0.072271 0.108600 -0.020723
v 0.074705 0.112787 -0.022494
v 0.073427 0.117739 -0.023159
v 0.068274 0.127747 -0.031226
v 0.058120 0.125659 -0.027269
v 0.052884 0.116649 -0.023459
v 0.055632 0.105996 -0.022028
v 0.064755 0.099938 -0.023813
v 0.074909 0.102026 -0.027770
v 0.080145 0.111036 -0.031580
v 0.077397 0.121689 -0.033011
v 0.063810 0.110465 -0.028650
v 0.084411 0.052873 0.129005
v 0.084411 0.129871 0.121232
v 0.084411 0.052873 0.121232
v 0.092184 0.129871 0.129005
v 0.092184 0.052873 0.129005
v 0.092184 0.129871 0.121232
v 0.092184 0.052873 0.121232
v 0.084411 0.129871 0.129005
v 0.177226 0.000000 -0.177226
v -0.177226 0.000000 0.177226
v 0.177226 0.000000 0.177226
v -0.177226 0.000000 -0.177226
vt 0.750000 0.750000
vt 0.750000 0.750000
vt 0.750000 0.750000
vt 0.750000 0.750000
vt 0.750000 0.750000
vt 0.750000 0.750000
vt 0.750000 0.750000
vt 0.750000 0.750000
vt 0.750000 0.750000
vt 0.750000 0.750000
vt 0.750000 0.750000
vt 0.750000 0.750000
vt 0.250000 0.750000
vt 0.250000 0.750000
vt 0.250000 0.750000
vt 0.250000 0.750000
vt 0.250000 0.750000
vt 0.250000 0.750000
vt 0.250000 0.750000
vt 0.250000 0.750000
vt 0.250000 0.750000
vt 0.250000 0.750000
vt 0.250000 0.750000
vt 0.250000 0.750000
vt 0.250000 0.750000
vt 0.250000 0.750000
vt 0.250000 0.750000
vt 0.250000 0.750000
vt 0.250000 0.250000
vt 0.250000 0.250000
vt 0.250000 0.250000
vt 0.250000 0.250000
vt 0.250000 0.250000
vt 0.250000 0.250000
vt 0.250000 0.250000
vt 0.250000 0.250000
vt 0.250000 0.250000
vt 0.250000 0.250000
vt 0.250000 0.250000
vt 0.250000 0.250000
vt 0.250000 0.250000
vt 0.250000 0.250000
vt 0.250000 0.250000
vt 0.250000 0.250000
vt 0.250000 0.250000
vt 0.250000 0.250000
vt 0.250000 0.250000
vt 0.250000 0.250000
vt 0.250000 0.250000
vt 0.250000 0.250000
vt 0.250000 0.250000
vt 0.250000 0.250000
vt 0.250000 0.250000
vt 0.250000 0.250000
vt 0.250000 0.250000
vt 0.250000 0.250000
vt 0.250000 0.250000
vt 0.250000 0.250000
vt 0.250000 0.250000
vt 0.250000 0.250000
vt 0.250000 0.250000
vt 0.250000 0.250000
vt 0.250000 0.250000
vt 0.250000 0.250000
vt 0.250000 0.250000
vt 0.250000 0.250000
vt 0.250000 0.250000
vt 0.250000 0.250000
vt 0.250000 0.250000
vt 0.250000 0.250000
vt 0.250000 0.250000
vt 0.250000 0.250000
vt 0.250000 0.250000
vt 0.250000 0.250000
vt 0.250000 0.250000
vt 0.250000 0.250000
vt 0.250000 0.250000
vt 0.250000 0.250000
vt 0.250000 0.250000
vt 0.250000 0.250000
vt 0.250000 0.250000
vt 0.250000 0.250000
vt 0.250000 0.250000
vt 0.250000 0.250000
vt 0.250000 0.250000
vt 0.250000 0.250000
vt 0.250000 0.250000
vt 0.250000 0.250000
vt 0.250000 0.250000
vt 0.250000 0.250000
vt 0.250000 0.250000
vt 0.250000 0.250000
vt 0.250000 0.250000
vt 0.250000 0.250000
vt 0.250000 0.250000
vt 0.250000 0.250000
vt 0.250000 0.250000
vt 0.250000 0.250000
vt 0.250000 0.250000
vt 0.250000 0.250000
vt 0.250000 0.250000
vt 0.250000 0.750000
vt 0.250000 0.750000
vt 0.250000 0.750000
vt 0.250000 0.750000
vt 0.250000 0.750000
vt 0.250000 0.750000
vt 0.250000 0.750000
vt 0.250000 0.750000
vn 0.0000 1.0000 0.0000
vn 0.0000 0.0000 1.0000
vn -1.0000 0.0000 0.0000
vn 0.0000 -1.0000 0.0000
vn 1.0000 0.0000 0.0000
vn 0.0000 0.0000 -1.0000
vn 0.9239 0.0000 0.3827
vn -0.3827 0.0000 0.9239
vn -0.9239 0.0000 -0.3827
vn 0.9239 0.0000 -0.3827
vn 0.3827 0.0000 0.9239
vn -0.9239 0.0000 0.3827
vn -0.3827 0.0000 -0.9239
vn 0.3827 0.0000 -0.9239
vn -0.3246 0.7541 0.5710
vn -0.8968 -0.4155 0.1520
vn 0.8759 -0.4447 0.1872
vn 0.3987 0.7118 0.5782
vn -0.8712 0.2871 0.3983
vn -0.3774 -0.9258 -0.0216
vn 0.3686 -0.9296 -0.0060
vn 0.8785 0.2187 0.4247
vn 0.8620 -0.3616 -0.3552
vn 0.5002 0.6345 0.5892
vn -0.7124 0.1935 0.6746
vn -0.4578 -0.8467 -0.2710
vn 0.2608 -0.8080 -0.5283
vn 0.9571 0.2556 0.1366
vn -0.1594 0.5996 0.7843
vn -0.8718 -0.4177 0.2560
vn -0.8272 -0.4510 0.3352
vn 0.7290 -0.3322 -0.5984
vn 0.6526 0.3081 0.6922
vn -0.4980 -0.0167 0.8670
vn -0.5771 -0.7128 -0.3986
vn 0.0606 -0.6317 -0.7728
vn 0.9945 0.0771 0.0715
vn 0.0777 0.2644 0.9613
vn -0.1600 -0.3718 -0.9144
vn 0.9365 0.2745 -0.2182
vn 0.1942 0.0903 0.9768
vn -0.8142 -0.5284 0.2406
vn 0.5487 0.0186 -0.8358
vn 0.7973 0.2970 0.5255
vn -0.4955 -0.2540 0.8306
vn -0.6864 -0.5901 -0.4251
vn 0.0000 0.2864 -0.9581
vn -0.6423 -0.3265 0.6934
vn -0.6466 0.3740 -0.6649
vn -0.0050 0.4800 -0.8772
vn 0.9962 0.0671 0.0555
vn 0.0071 -0.4388 0.8985
vn -0.9991 0.0389 0.0179
vn 0.6500 0.4108 -0.6393
vn 0.6434 -0.3093 0.7003
vn 0.8385 0.5013 -0.2133
vn 0.4698 -0.8797 -0.0732
vn -0.8362 -0.5394 0.0990
vn -0.4988 0.8665 -0.0189
vn 0.2202 0.9657 -0.1373
vn 0.9365 -0.2999 -0.1818
vn -0.2261 -0.9735 0.0354
vn -0.9633 0.2566 0.0785
vn -0.1585 -0.4912 0.8565
vn -0.3336 0.5250 0.7830
vn 0.8466 0.2793 0.4531
vn 0.3953 -0.5932 0.7014
vn -0.4598 0.0007 0.8880
vn 0.0820 0.7791 0.6215
vn 0.5463 0.6779 0.4920
vn 0.8101 -0.2457 0.5324
vn -0.2431 -0.0813 -0.9666
vn -0.1578 -0.3054 -0.9391
vn -0.4290 -0.4087 -0.8056
vn -0.4713 -0.0968 -0.8767
vn -0.1680 -0.1737 -0.9704
vn -0.2523 -0.4226 -0.8705
vn -0.5257 -0.2451 -0.8146
vn -0.3541 -0.0477 -0.9340
usemtl Material
s off
f 1/1/1 5/2/1 7/3/1 3/4/1
f 100/5/2 3/4/2 7/3/2 99/6/2
f 99/6/3 7/3/3 5/2/3 101/7/3
f 6/8/4 2/9/4 4/10/4 8/11/4
f 98/12/5 1/1/5 3/4/5 100/5/5
f 101/7/6 5/2/6 1/1/6 98/12/6
f 15/13/7 14/14/7 22/15/7 23/16/7
f 13/17/8 12/18/8 20/19/8 21/20/8
f 11/21/9 10/22/9 18/23/9 19/24/9
f 16/25/10 15/13/10 23/16/10 24/26/10
f 14/14/11 13/17/11 21/20/11 22/15/11
f 12/18/12 11/21/12 19/24/12 20/19/12
f 10/22/13 9/27/13 17/28/13 18/23/13
f 9/27/14 16/25/14 24/26/14 17/28/14
f 10/22/1 11/21/1 12/18/1 13/17/1 14/14/1 15/13/1 16/25/1 9/27/1
f 29/29/15 28/30/15 36/31/15 37/32/15
f 27/33/16 26/34/16 34/35/16 35/36/16
f 32/37/17 31/38/17 39/39/17 40/40/17
f 30/41/18 29/29/18 37/32/18 38/42/18
f 28/30/19 27/33/19 35/36/19 36/31/19
f 26/34/20 25/43/20 33/44/20 34/35/20
f 25/43/21 32/37/21 40/40/21 33/44/21
f 31/38/22 30/41/22 38/42/22 39/39/22
f 40/40/23 39/39/23 47/45/23 48/46/23
f 38/42/24 37/32/24 45/47/24 46/48/24
f 36/31/25 35/36/25 43/49/25 44/50/25
f 34/35/26 33/44/26 41/51/26 42/52/26
f 33/44/27 40/40/27 48/46/27 41/51/27
f 39/39/28 38/42/28 46/48/28 47/45/28
f 37/32/29 36/31/29 44/50/29 45/47/29
f 35/36/30 34/35/30 42/52/30 43/49/30
f 43/49/31 42/52/31 50/53/31 51/54/31
f 48/46/32 47/45/32 55/55/32 56/56/32
f 46/48/33 45/47/33 53/57/33 54/58/33
f 44/50/34 43/49/34 51/54/34 52/59/34
f 42/52/35 41/51/35 49/60/35 50/53/35
f 41/51/36 48/46/36 56/56/36 49/60/36
f 47/45/37 46/48/37 54/58/37 55/55/37
f 45/47/38 44/50/38 52/59/38 53/57/38
f 49/60/39 56/56/39 64/61/39 57/62/39
f 55/55/40 54/58/40 62/63/40 63/64/40
f 53/57/41 52/59/41 60/65/41 61/66/41
f 51/54/42 50/53/42 58/67/42 59/68/42
f 56/56/43 55/55/43 63/64/43 64/61/43
f 54/58/44 53/57/44 61/66/44 62/63/44
f 52/59/45 51/54/45 59/68/45 60/65/45
f 50/53/46 49/60/46 57/62/46 58/67/46
f 26/34/47 27/33/47 28/30/47 29/29/47 30/41/47 31/38/47 32/37/47 25/43/47
f 60/65/48 59/68/48 67/69/48 68/70/48
f 58/67/49 57/62/49 65/71/49 66/72/49
f 57/62/50 64/61/50 72/73/50 65/71/50
f 63/64/51 62/63/51 70/74/51 71/75/51
f 61/66/52 60/65/52 68/70/52 69/76/52
f 59/68/53 58/67/53 66/72/53 67/69/53
f 64/61/54 63/64/54 71/75/54 72/73/54
f 62/63/55 61/66/55 69/76/55 70/74/55
f 72/73/56 71/75/56 79/77/56 80/78/56
f 70/74/57 69/76/57 77/79/57 78/80/57
f 68/70/58 67/69/58 75/81/58 76/82/58
f 66/72/59 65/71/59 73/83/59 74/84/59
f 65/71/60 72/73/60 80/78/60 73/83/60
f 71/75/61 70/74/61 78/80/61 79/77/61
f 69/76/62 68/70/62 76/82/62 77/79/62
f 67/69/63 66/72/63 74/84/63 75/81/63
f 77/79/64 76/82/64 84/85/64 85/86/64
f 75/81/65 74/84/65 82/87/65 83/88/65
f 80/78/66 79/77/66 87/89/66 88/90/66
f 78/80/67 77/79/67 85/86/67 86/91/67
f 76/82/68 75/81/68 83/88/68 84/85/68
f 74/84/69 73/83/69 81/92/69 82/87/69
f 73/83/70 80/78/70 88/90/70 81/92/70
f 79/77/71 78/80/71 86/91/71 87/89/71
f 81/92/72 88/90/72 89/93/72
f 87/89/73 86/91/73 89/93/73
f 85/86/74 84/85/74 89/93/74
f 83/88/75 82/87/75 89/93/75
f 88/90/76 87/89/76 89/93/76
f 86/91/77 85/86/77 89/93/77
f 84/85/78 83/88/78 89/93/78
f 82/87/79 81/92/79 89/93/79
f 96/94/5 95/95/5 93/96/5 94/97/5
f 94/97/2 93/96/2 97/98/2 90/99/2
f 90/99/3 97/98/3 91/100/3 92/101/3
f 92/101/6 91/100/6 95/95/6 96/94/6
f 6/102/6 101/103/6 98/104/6 2/105/6
f 2/105/5 98/104/5 100/106/5 4/107/5
f 8/108/3 99/109/3 101/103/3 6/102/3
f 4/107/2 100/106/2 99/109/2 8/108/2
