# Blender v2.80 (sub 75) OBJ File: 'party-cannon.blend'
# www.blender.org
mtllib party-cannon.mtl
o Cube
v 0.119343 0.028435 -0.028435
v 0.119343 -0.028435 -0.028435
v 0.119343 0.028435 0.028435
v 0.119343 -0.028435 0.028435
v -0.038131 0.028435 -0.028435
v -0.038131 -0.028435 -0.028435
v -0.038131 0.028435 0.028435
v -0.038131 -0.028435 0.028435
v -0.111619 0.024297 -0.024297
v -0.111619 -0.024297 -0.024297
v -0.111619 0.024297 0.024297
v -0.111619 -0.024297 0.024297
v -0.129123 0.024297 -0.024297
v -0.129123 -0.024297 -0.024297
v -0.129123 0.024297 0.024297
v -0.129123 -0.024297 0.024297
v -0.031523 0.006252 -0.006252
v -0.031523 -0.006252 -0.006252
v -0.031523 0.006252 0.006252
v -0.031523 -0.006252 0.006252
v -0.119749 0.006252 -0.006252
v -0.119749 -0.006252 -0.006252
v -0.119749 0.006252 0.006252
v -0.119749 -0.006252 0.006252
v 0.087848 -0.028435 -0.028435
v 0.056353 -0.028435 -0.028435
v 0.024859 -0.028435 -0.028435
v -0.006636 -0.028435 -0.028435
v 0.087848 0.028435 0.028435
v 0.056353 0.028435 0.028435
v 0.024859 0.028435 0.028435
v -0.006636 0.028435 0.028435
v -0.006636 -0.028435 0.028435
v 0.024859 -0.028435 0.028435
v 0.056353 -0.028435 0.028435
v 0.087848 -0.028435 0.028435
v -0.006636 0.028435 -0.028435
v 0.024859 0.028435 -0.028435
v 0.056353 0.028435 -0.028435
v 0.087848 0.028435 -0.028435
vt 0.250000 0.250000
vt 0.250000 0.250000
vt 0.250000 0.250000
vt 0.250000 0.250000
vt 0.250000 0.250000
vt 0.250000 0.250000
vt 0.250000 0.250000
vt 0.250000 0.250000
vt 0.250000 0.250000
vt 0.250000 0.250000
vt 0.250000 0.250000
vt 0.250000 0.250000
vt 0.250000 0.250000
vt 0.250000 0.250000
vt 0.250000 0.250000
vt 0.250000 0.250000
vt 0.250000 0.250000
vt 0.250000 0.250000
vt 0.250000 0.250000
vt 0.250000 0.250000
vt 0.250000 0.250000
vt 0.250000 0.250000
vt 0.250000 0.750000
vt 0.250000 0.750000
vt 0.250000 0.750000
vt 0.250000 0.750000
vt 0.250000 0.750000
vt 0.250000 0.750000
vt 0.250000 0.750000
vt 0.250000 0.750000
vt 0.250000 0.750000
vt 0.250000 0.750000
vt 0.250000 0.750000
vt 0.250000 0.750000
vt 0.250000 0.250000
vt 0.250000 0.250000
vt 0.250000 0.250000
vt 0.250000 0.250000
vt 0.250000 0.250000
vt 0.250000 0.750000
vt 0.250000 0.750000
vt 0.250000 0.750000
vt 0.250000 0.750000
vt 0.250000 0.750000
vt 0.250000 0.750000
vt 0.250000 0.250000
vt 0.250000 0.250000
vt 0.250000 0.750000
vt 0.250000 0.750000
vt 0.250000 0.250000
vt 0.250000 0.750000
vt 0.250000 0.750000
vt 0.250000 0.250000
vt 0.250000 0.250000
vt 0.250000 0.750000
vt 0.250000 0.750000
vn 0.0000 1.0000 0.0000
vn 0.0000 0.0000 1.0000
vn -1.0000 0.0000 0.0000
vn 0.0000 -1.0000 0.0000
vn 1.0000 0.0000 0.0000
vn 0.0000 0.0000 -1.0000
usemtl Material
s off
f 37/1/1 5/2/1 7/3/1 32/4/1
f 33/5/2 32/4/2 7/3/2 8/6/2
f 8/6/3 7/3/3 5/2/3 6/7/3
f 25/8/4 2/9/4 4/10/4 36/11/4
f 2/9/5 1/12/5 3/13/5 4/10/5
f 25/8/6 40/14/6 1/12/6 2/9/6
f 9/15/1 13/16/1 15/17/1 11/18/1
f 12/19/2 11/18/2 15/17/2 16/20/2
f 16/20/3 15/17/3 13/16/3 14/21/3
f 14/21/4 10/22/4 12/19/4 16/20/4
f 10/22/5 9/15/5 11/18/5 12/19/5
f 14/21/6 13/16/6 9/15/6 10/22/6
f 17/23/1 21/24/1 23/25/1 19/26/1
f 20/27/2 19/26/2 23/25/2 24/28/2
f 28/29/6 37/30/6 38/31/6 27/32/6
f 22/33/4 18/34/4 20/27/4 24/28/4
f 6/7/6 5/2/6 37/1/6 28/35/6
f 22/33/6 21/24/6 17/23/6 18/34/6
f 27/36/6 38/37/6 39/38/6 26/39/6
f 26/40/6 39/41/6 40/42/6 25/43/6
f 6/7/4 28/35/4 33/5/4 8/6/4
f 28/29/4 27/32/4 34/44/4 33/45/4
f 27/36/4 26/39/4 35/46/4 34/47/4
f 26/40/4 25/43/4 36/48/4 35/49/4
f 4/10/2 3/13/2 29/50/2 36/11/2
f 36/48/2 29/51/2 30/52/2 35/49/2
f 35/46/2 30/53/2 31/54/2 34/47/2
f 34/44/2 31/55/2 32/56/2 33/45/2
f 1/12/1 40/14/1 29/50/1 3/13/1
f 40/42/1 39/41/1 30/52/1 29/51/1
f 39/38/1 38/37/1 31/54/1 30/53/1
f 38/31/1 37/30/1 32/56/1 31/55/1
