# Blender v2.80 (sub 75) OBJ File: 'snapback.blend'
# www.blender.org
mtllib snapback.mtl
o Cube
v -0.067686 0.056439 0.064980
v -0.067230 0.056415 -0.070029
v 0.067469 0.056438 0.065450
v 0.067925 0.056414 -0.069559
v -0.077897 0.000926 0.076448
v 0.077989 0.000896 -0.078206
v -0.077373 0.000898 -0.078747
v 0.077465 0.000924 0.076989
v 0.077448 -0.011627 0.077308
v -0.077390 -0.011653 -0.078428
v 0.077972 -0.011655 -0.077887
v -0.077914 -0.011625 0.076767
v -0.077011 0.000878 -0.160111
v 0.078352 0.000877 -0.159571
v 0.078335 -0.011674 -0.159252
v -0.077027 -0.011673 -0.159792
vt 0.750000 0.750000
vt 0.750000 0.750000
vt 0.750000 0.750000
vt 0.750000 0.750000
vt 0.250000 0.750000
vt 0.250000 0.750000
vt 0.250000 0.750000
vt 0.250000 0.750000
vt 0.250000 0.750000
vt 0.250000 0.750000
vt 0.250000 0.750000
vt 0.250000 0.750000
vt 0.250000 0.250000
vt 0.250000 0.250000
vt 0.250000 0.250000
vt 0.250000 0.250000
vt 0.250000 0.750000
vt 0.250000 0.750000
vt 0.250000 0.750000
vt 0.250000 0.750000
vt 0.250000 0.250000
vt 0.250000 0.250000
vt 0.250000 0.250000
vt 0.250000 0.250000
vn 0.0000 1.0000 -0.0002
vn 0.0034 0.1545 -0.9880
vn 0.9840 0.1779 0.0033
vn -0.9836 0.1802 -0.0034
vn -0.0034 0.2029 0.9792
vn 1.0000 -0.0012 0.0045
vn -0.0035 0.0254 0.9997
vn 1.0000 -0.0012 0.0034
vn -1.0000 0.0012 -0.0034
vn 0.0035 -0.0254 -0.9997
vn -0.0000 -1.0000 0.0002
vn -1.0000 0.0012 -0.0045
usemtl Material
s off
f 1/1/1 3/2/1 4/3/1 2/4/1
f 7/5/2 2/6/2 4/7/2 6/8/2
f 6/8/3 4/7/3 3/9/3 8/10/3
f 5/11/4 1/12/4 2/6/4 7/5/4
f 8/10/5 3/9/5 1/12/5 5/11/5
f 6/13/6 11/14/6 15/15/6 14/16/6
f 8/10/7 5/11/7 12/17/7 9/18/7
f 6/8/8 8/10/8 9/18/8 11/19/8
f 5/11/9 7/5/9 10/20/9 12/17/9
f 13/21/10 14/16/10 15/15/10 16/22/10
f 11/14/11 10/23/11 16/22/11 15/15/11
f 10/23/12 7/24/12 13/21/12 16/22/12
f 7/24/1 6/13/1 14/16/1 13/21/1
f 9/18/11 12/17/11 10/20/11 11/19/11
