# Blender v2.80 (sub 75) OBJ File: 'tshirt.blend'
# www.blender.org
mtllib tshirt.mtl
o Cube
v -0.179128 -0.004111 -0.048281
v -0.220399 -0.004111 -0.132778
v -0.123071 -0.004111 -0.171381
v -0.123071 -0.004111 -0.060871
v -0.123071 -0.004111 0.252017
v -0.065319 -0.004111 -0.171381
v -0.179128 0.014111 -0.048281
v -0.220399 0.014111 -0.132778
v -0.123071 0.014111 -0.171381
v -0.123071 0.014111 -0.060871
v -0.123071 0.014111 0.252017
v -0.065319 0.014111 -0.171381
v 0.179128 -0.004111 -0.048281
v 0.220399 -0.004111 -0.132778
v 0.123071 -0.004111 -0.171381
v 0.123071 -0.004111 -0.060871
v 0.123071 -0.004111 0.252017
v 0.000000 -0.004111 -0.150197
v 0.065320 -0.004111 -0.171381
v 0.179128 0.014111 -0.048281
v 0.220399 0.014111 -0.132778
v 0.123071 0.014111 -0.171381
v 0.123071 0.014111 -0.060871
v 0.123071 0.014111 0.252017
v 0.000000 0.014111 -0.150197
v 0.065320 0.014111 -0.171381
v -0.182311 -0.009492 -0.041653
v -0.227360 -0.009336 -0.135473
v -0.124344 -0.010190 -0.178047
v -0.125176 -0.012577 -0.058241
v -0.128331 -0.009371 0.257277
v 0.182311 -0.009492 -0.041653
v 0.227360 -0.009336 -0.135473
v 0.124344 -0.010190 -0.178047
v 0.125176 -0.012577 -0.058241
v 0.128331 -0.009371 0.257277
v -0.182311 0.019492 -0.041653
v -0.227360 0.019336 -0.135473
v -0.124344 0.020190 -0.178047
v -0.125176 0.022577 -0.058241
v -0.128331 0.019371 0.257277
v 0.182311 0.019492 -0.041653
v 0.227360 0.019336 -0.135473
v 0.124344 0.020190 -0.178047
v 0.125176 0.022577 -0.058241
v 0.128331 0.019371 0.257277
vt 0.750000 0.750000
vt 0.750000 0.750000
vt 0.750000 0.750000
vt 0.750000 0.750000
vt 0.750000 0.750000
vt 0.750000 0.750000
vt 0.750000 0.750000
vt 0.750000 0.750000
vt 0.750000 0.750000
vt 0.750000 0.750000
vt 0.750000 0.750000
vt 0.750000 0.750000
vt 0.750000 0.750000
vt 0.750000 0.750000
vt 0.750000 0.750000
vt 0.750000 0.750000
vt 0.750000 0.750000
vt 0.750000 0.750000
vt 0.750000 0.750000
vt 0.750000 0.750000
vt 0.750000 0.750000
vt 0.750000 0.750000
vt 0.750000 0.750000
vt 0.750000 0.750000
vt 0.750000 0.750000
vt 0.750000 0.750000
vt 0.250000 0.250000
vt 0.250000 0.250000
vt 0.250000 0.250000
vt 0.250000 0.250000
vt 0.250000 0.250000
vt 0.250000 0.250000
vt 0.250000 0.250000
vt 0.250000 0.250000
vt 0.250000 0.250000
vt 0.250000 0.250000
vt 0.250000 0.250000
vt 0.250000 0.250000
vt 0.250000 0.250000
vt 0.250000 0.250000
vt 0.250000 0.250000
vt 0.250000 0.250000
vt 0.250000 0.250000
vt 0.250000 0.250000
vt 0.250000 0.250000
vt 0.250000 0.250000
vn 0.0000 -1.0000 -0.0000
vn 0.0000 1.0000 -0.0000
vn 0.3085 0.0000 -0.9512
vn -0.8985 0.0000 0.4389
vn -1.0000 0.0000 0.0000
vn -0.3687 0.0000 -0.9296
vn 0.0000 0.0000 -1.0000
vn 0.2191 0.0000 0.9757
vn -0.3085 0.0000 -0.9512
vn 0.8985 0.0000 0.4389
vn 0.0000 0.0000 1.0000
vn 1.0000 0.0000 0.0000
vn 0.3687 0.0000 -0.9296
vn -0.2191 0.0000 0.9757
vn 0.0269 0.9996 0.0063
vn -0.0269 0.9996 0.0063
vn -0.0000 1.0000 -0.0020
vn 0.0269 -0.9996 0.0063
vn -0.0269 -0.9996 0.0063
vn 0.0000 -1.0000 -0.0020
vn 0.9999 0.0000 0.0100
vn -0.3819 0.0000 0.9242
vn 0.2788 0.0000 -0.9603
vn 0.3819 0.0000 0.9242
vn -0.9015 0.0000 -0.4329
vn -0.9999 0.0000 0.0100
vn 0.9015 0.0000 -0.4329
vn -0.2788 0.0000 -0.9603
usemtl Material
s off
f 4/1/1 1/2/1 2/3/1 3/4/1
f 17/5/1 5/6/1 18/7/1
f 10/8/2 9/9/2 8/10/2 7/11/2
f 18/7/3 6/12/3 12/13/3 25/14/3
f 2/3/4 1/2/4 7/11/4 8/10/4
f 4/1/5 5/6/5 11/15/5 10/8/5
f 3/4/6 2/3/6 8/10/6 9/9/6
f 6/12/7 3/4/7 9/9/7 12/13/7
f 1/2/8 4/1/8 10/8/8 7/11/8
f 16/16/1 15/17/1 14/18/1 13/19/1
f 11/15/2 24/20/2 25/14/2
f 23/21/2 20/22/2 21/23/2 22/24/2
f 18/7/9 25/14/9 26/25/9 19/26/9
f 14/18/10 21/23/10 20/22/10 13/19/10
f 17/5/11 24/20/11 11/15/11 5/6/11
f 16/16/12 23/21/12 24/20/12 17/5/12
f 15/17/13 22/24/13 21/23/13 14/18/13
f 19/26/7 26/25/7 22/24/7 15/17/7
f 13/19/14 20/22/14 23/21/14 16/16/14
f 25/14/2 12/13/2 9/9/2 10/8/2 11/15/2
f 25/14/2 24/20/2 23/21/2 22/24/2 26/25/2
f 18/7/1 19/26/1 15/17/1 16/16/1 17/5/1
f 18/7/1 5/6/1 4/1/1 3/4/1 6/12/1
f 30/27/15 29/28/15 28/29/15 27/30/15
f 35/31/16 32/32/16 33/33/16 34/34/16
f 30/27/17 31/35/17 36/36/17 35/31/17 34/34/17 29/28/17
f 40/37/18 37/38/18 38/39/18 39/40/18
f 45/41/19 44/42/19 43/43/19 42/44/19
f 40/37/20 39/40/20 44/42/20 45/41/20 46/45/20 41/46/20
f 30/27/21 40/37/21 41/46/21 31/35/21
f 33/33/22 43/43/22 44/42/22 34/34/22
f 35/31/23 45/41/23 42/44/23 32/32/23
f 29/28/24 39/40/24 38/39/24 28/29/24
f 32/32/25 42/44/25 43/43/25 33/33/25
f 36/36/26 46/45/26 45/41/26 35/31/26
f 28/29/27 38/39/27 37/38/27 27/30/27
f 34/34/11 44/42/11 39/40/11 29/28/11
f 27/30/28 37/38/28 40/37/28 30/27/28
f 31/35/7 41/46/7 46/45/7 36/36/7
