# Blender v2.80 (sub 75) OBJ File: 'edge-corner-inner.blend'
# www.blender.org
mtllib edge-corner-inner.mtl
o Cube
v 0.500000 0.400000 -0.500000
v -0.500000 0.500000 -0.500000
v -0.500000 0.500000 -0.400000
v 0.500000 0.400000 0.500000
v -0.400000 0.500000 -0.400000
v -0.500000 0.400000 -0.500000
v -0.400000 0.500000 -0.500000
v -0.500000 0.400000 0.500000
v -0.500000 0.400000 -0.400000
v -0.400000 0.400000 -0.400000
v -0.400000 0.400000 -0.500000
vt 0.125000 0.875000
vt 0.125000 0.875000
vt 0.125000 0.875000
vt 0.125000 0.875000
vt 0.625000 0.875000
vt 0.625000 0.875000
vt 0.625000 0.875000
vt 0.625000 0.875000
vt 0.625000 0.875000
vt 0.625000 0.875000
vt 0.625000 0.875000
vn 0.0000 1.0000 0.0000
vn 1.0000 0.0000 0.0000
vn 0.0000 0.0000 1.0000
usemtl Material
s off
f 8/1/1 4/2/1 1/3/1 6/4/1
f 7/5/1 2/6/1 3/7/1 5/8/1
f 7/5/2 5/8/2 10/9/2 11/10/2
f 5/8/3 3/7/3 9/11/3 10/9/3
