# Blender v2.80 (sub 75) OBJ File: 'bush.blend'
# www.blender.org
mtllib bush.mtl
o Cube
v -0.108731 -0.375508 -0.089945
v -0.108731 0.018518 -0.089945
v -0.108731 -0.375508 -0.371036
v -0.108731 0.018518 -0.371036
v 0.394361 -0.375508 -0.089945
v 0.394361 0.018518 -0.089945
v 0.394361 -0.375508 -0.371036
v 0.394361 0.018518 -0.371036
v 0.301022 -0.335401 0.215597
v 0.301022 -0.083717 0.215597
v 0.301022 -0.335401 -0.127035
v 0.301022 -0.083717 -0.127035
v 0.541751 -0.335401 0.215597
v 0.541751 -0.083717 0.215597
v 0.541751 -0.335401 -0.127035
v 0.541751 -0.083717 -0.127035
v -0.176783 -0.504895 0.153700
v -0.176783 -0.216934 0.153700
v -0.176783 -0.504895 -0.226883
v -0.176783 -0.216934 -0.226883
v 0.457701 -0.504895 0.153700
v 0.457701 -0.216934 0.153700
v 0.457701 -0.504895 -0.226883
v 0.457701 -0.216934 -0.226883
v -0.286571 -0.334828 0.255757
v -0.286571 -0.042007 0.255757
v -0.286571 -0.334828 0.046863
v -0.286571 -0.042007 0.046863
v -0.053764 -0.334828 0.255757
v -0.053764 -0.042007 0.255757
v -0.053764 -0.334828 0.046863
v -0.053764 -0.042007 0.046863
vt 0.250000 0.250000
vt 0.250000 0.250000
vt 0.250000 0.250000
vt 0.250000 0.250000
vt 0.250000 0.250000
vt 0.250000 0.250000
vt 0.250000 0.250000
vt 0.250000 0.250000
vt 0.750000 0.250000
vt 0.750000 0.250000
vt 0.750000 0.250000
vt 0.750000 0.250000
vt 0.250000 0.250000
vt 0.250000 0.250000
vt 0.250000 0.250000
vt 0.250000 0.250000
vt 0.250000 0.250000
vt 0.250000 0.250000
vt 0.250000 0.250000
vt 0.250000 0.250000
vt 0.750000 0.250000
vt 0.750000 0.250000
vt 0.750000 0.250000
vt 0.750000 0.250000
vt 0.250000 0.250000
vt 0.250000 0.250000
vt 0.250000 0.250000
vt 0.250000 0.250000
vt 0.250000 0.250000
vt 0.250000 0.250000
vt 0.250000 0.250000
vt 0.250000 0.250000
vt 0.750000 0.250000
vt 0.750000 0.250000
vt 0.750000 0.250000
vt 0.750000 0.250000
vt 0.250000 0.250000
vt 0.250000 0.250000
vt 0.250000 0.250000
vt 0.250000 0.250000
vt 0.250000 0.250000
vt 0.250000 0.250000
vt 0.250000 0.250000
vt 0.250000 0.250000
vt 0.750000 0.250000
vt 0.750000 0.250000
vt 0.750000 0.250000
vt 0.750000 0.250000
vn -1.0000 0.0000 0.0000
vn 0.0000 0.0000 -1.0000
vn 1.0000 0.0000 0.0000
vn 0.0000 0.0000 1.0000
vn 0.0000 -1.0000 0.0000
vn 0.0000 1.0000 0.0000
usemtl Material
s off
f 1/1/1 2/2/1 4/3/1 3/4/1
f 3/4/2 4/3/2 8/5/2 7/6/2
f 7/6/3 8/5/3 6/7/3 5/8/3
f 5/8/4 6/7/4 2/2/4 1/1/4
f 3/4/5 7/6/5 5/8/5 1/1/5
f 8/9/6 4/10/6 2/11/6 6/12/6
f 9/13/1 10/14/1 12/15/1 11/16/1
f 11/16/2 12/15/2 16/17/2 15/18/2
f 15/18/3 16/17/3 14/19/3 13/20/3
f 13/20/4 14/19/4 10/14/4 9/13/4
f 11/16/5 15/18/5 13/20/5 9/13/5
f 16/21/6 12/22/6 10/23/6 14/24/6
f 17/25/1 18/26/1 20/27/1 19/28/1
f 23/29/3 24/30/3 22/31/3 21/32/3
f 21/32/4 22/31/4 18/26/4 17/25/4
f 19/28/5 23/29/5 21/32/5 17/25/5
f 24/33/6 20/34/6 18/35/6 22/36/6
f 19/28/2 20/27/2 24/30/2 23/29/2
f 25/37/1 26/38/1 28/39/1 27/40/1
f 27/40/2 28/39/2 32/41/2 31/42/2
f 31/42/3 32/41/3 30/43/3 29/44/3
f 29/44/4 30/43/4 26/38/4 25/37/4
f 27/40/5 31/42/5 29/44/5 25/37/5
f 32/45/6 28/46/6 26/47/6 30/48/6
