# Blender v2.80 (sub 75) OBJ File: 'tree1.blend'
# www.blender.org
mtllib tree1.mtl
o Cube
v 0.042579 0.500000 -0.042579
v 0.042579 -0.500000 -0.042579
v 0.042579 0.500000 0.042579
v 0.042579 -0.500000 0.042579
v -0.042579 0.500000 -0.042579
v -0.042579 -0.500000 -0.042579
v -0.042579 0.500000 0.042579
v -0.042579 -0.500000 0.042579
v -0.559753 0.352350 0.111944
v -0.559753 0.849706 0.111944
v -0.559753 0.352350 -0.385413
v -0.559753 0.849706 -0.385413
v 0.166710 0.352350 0.111944
v 0.166710 0.849706 0.111944
v 0.166710 0.352350 -0.385413
v 0.166710 0.849706 -0.385413
v 0.030038 0.686797 0.401628
v 0.030038 0.965115 0.401628
v 0.030038 0.686797 -0.089904
v 0.030038 0.965115 -0.089904
v 0.403448 0.686797 0.401628
v 0.403448 0.965115 0.401628
v 0.403448 0.686797 -0.089904
v 0.403448 0.965115 -0.089904
v -0.354473 0.448532 0.471644
v -0.354473 0.736493 0.471644
v -0.354473 0.448532 0.091060
v -0.354473 0.736493 0.091060
v 0.045006 0.448532 0.471644
v 0.045006 0.736493 0.471644
v 0.045006 0.448532 0.091060
v 0.045006 0.736493 0.091060
vt 0.250000 0.750000
vt 0.250000 0.750000
vt 0.250000 0.750000
vt 0.250000 0.750000
vt 0.250000 0.750000
vt 0.250000 0.750000
vt 0.250000 0.750000
vt 0.250000 0.750000
vt 0.250000 0.250000
vt 0.250000 0.250000
vt 0.250000 0.250000
vt 0.250000 0.250000
vt 0.250000 0.250000
vt 0.250000 0.250000
vt 0.250000 0.250000
vt 0.250000 0.250000
vt 0.250000 0.250000
vt 0.250000 0.250000
vt 0.250000 0.250000
vt 0.250000 0.250000
vt 0.250000 0.250000
vt 0.250000 0.250000
vt 0.250000 0.250000
vt 0.250000 0.250000
vt 0.250000 0.250000
vt 0.250000 0.250000
vt 0.250000 0.250000
vt 0.250000 0.250000
vt 0.250000 0.250000
vt 0.250000 0.250000
vt 0.250000 0.250000
vt 0.250000 0.250000
vn 0.0000 0.0000 1.0000
vn -1.0000 0.0000 0.0000
vn 1.0000 0.0000 0.0000
vn 0.0000 0.0000 -1.0000
vn 0.0000 -1.0000 0.0000
vn 0.0000 1.0000 0.0000
usemtl Material
s off
f 4/1/1 3/2/1 7/3/1 8/4/1
f 8/4/2 7/3/2 5/5/2 6/6/2
f 2/7/3 1/8/3 3/2/3 4/1/3
f 6/6/4 5/5/4 1/8/4 2/7/4
f 9/9/2 10/10/2 12/11/2 11/12/2
f 11/12/4 12/11/4 16/13/4 15/14/4
f 15/14/3 16/13/3 14/15/3 13/16/3
f 13/16/1 14/15/1 10/10/1 9/9/1
f 11/12/5 15/14/5 13/16/5 9/9/5
f 16/13/6 12/11/6 10/10/6 14/15/6
f 17/17/2 18/18/2 20/19/2 19/20/2
f 19/20/4 20/19/4 24/21/4 23/22/4
f 23/22/3 24/21/3 22/23/3 21/24/3
f 21/24/1 22/23/1 18/18/1 17/17/1
f 19/20/5 23/22/5 21/24/5 17/17/5
f 24/21/6 20/19/6 18/18/6 22/23/6
f 25/25/2 26/26/2 28/27/2 27/28/2
f 31/29/3 32/30/3 30/31/3 29/32/3
f 29/32/1 30/31/1 26/26/1 25/25/1
f 27/28/5 31/29/5 29/32/5 25/25/5
f 32/30/6 28/27/6 26/26/6 30/31/6
