# Blender v2.80 (sub 75) OBJ File: 'corner.blend'
# www.blender.org
mtllib corner.mtl
o Cube
v -0.500000 0.500000 -0.500000
v -0.500000 -0.500000 -0.500000
v -0.500000 0.500000 0.500000
v -0.500000 -0.500000 0.500000
v -0.400000 -0.500000 -0.500000
v -0.400000 0.500000 0.500000
v -0.400000 -0.500000 0.500000
v -0.400000 0.500000 -0.500000
v -0.500000 -0.500000 0.400000
v -0.500000 0.500000 0.400000
v -0.400000 -0.500000 0.400000
v -0.400000 0.500000 0.400000
v 0.500000 -0.500000 0.400000
v 0.500000 -0.500000 0.500000
v 0.500000 0.500000 0.500000
v 0.500000 0.500000 0.400000
vt 0.079331 0.918553
vt 0.079331 0.918553
vt 0.079331 0.918553
vt 0.079331 0.918553
vt 0.079331 0.918553
vt 0.079331 0.918553
vt 0.079331 0.918553
vt 0.079331 0.918553
vt 0.079331 0.918553
vt 0.079331 0.918553
vt 0.079331 0.918553
vt 0.079331 0.918553
vt 0.079331 0.918553
vt 0.079331 0.918553
vt 0.079331 0.918553
vt 0.079331 0.918553
vn 0.0000 1.0000 0.0000
vn 0.0000 0.0000 1.0000
vn -1.0000 0.0000 0.0000
vn 0.0000 0.0000 -1.0000
vn 0.0000 -1.0000 0.0000
vn 1.0000 0.0000 0.0000
usemtl Material
s off
f 12/1/1 10/2/1 3/3/1 6/4/1
f 7/5/2 6/4/2 3/3/2 4/6/2
f 9/7/3 10/2/3 1/8/3 2/9/3
f 2/9/4 1/8/4 8/10/4 5/11/4
f 9/7/5 11/12/5 7/5/5 4/6/5
f 11/12/4 12/1/4 16/13/4 13/14/4
f 5/11/6 8/10/6 12/1/6 11/12/6
f 2/9/5 5/11/5 11/12/5 9/7/5
f 4/6/3 3/3/3 10/2/3 9/7/3
f 8/10/1 1/8/1 10/2/1 12/1/1
f 13/14/6 16/13/6 15/15/6 14/16/6
f 6/4/2 7/5/2 14/16/2 15/15/2
f 12/1/1 6/4/1 15/15/1 16/13/1
f 7/5/5 11/12/5 13/14/5 14/16/5
