# Blender v2.80 (sub 75) OBJ File: 'door.blend'
# www.blender.org
mtllib door.mtl
o Cube
v -0.500000 0.500000 -0.500000
v -0.500000 -0.500000 -0.500000
v -0.500000 0.500000 0.500000
v -0.500000 -0.500000 0.500000
v -0.400000 -0.500000 -0.500000
v -0.400000 0.500000 0.500000
v -0.400000 -0.500000 0.500000
v -0.400000 0.500000 -0.500000
v -0.500000 -0.500000 0.300000
v -0.400000 0.350000 0.300000
v -0.400000 -0.500000 0.300000
v -0.500000 0.350000 0.300000
v -0.400000 0.350000 -0.300000
v -0.500000 -0.500000 -0.300000
v -0.400000 -0.500000 -0.300000
v -0.500000 0.350000 -0.300000
v -0.500000 0.350000 0.500000
v -0.500000 0.350000 -0.500000
v -0.400000 0.350000 -0.500000
v -0.400000 0.350000 0.500000
v -0.400000 0.350000 0.300000
v -0.500000 0.350000 0.300000
v -0.400000 0.350000 -0.300000
v -0.500000 0.350000 -0.300000
v -0.400000 0.350000 0.500000
v -0.500000 0.350000 0.500000
v -0.400000 0.350000 -0.500000
v -0.500000 0.350000 -0.500000
vt 0.750000 0.250000
vt 0.750000 0.250000
vt 0.750000 0.250000
vt 0.750000 0.250000
vt 0.250000 0.250000
vt 0.250000 0.250000
vt 0.250000 0.250000
vt 0.250000 0.250000
vt 0.250000 0.250000
vt 0.250000 0.250000
vt 0.250000 0.250000
vt 0.250000 0.250000
vt 0.250000 0.250000
vt 0.250000 0.250000
vt 0.250000 0.250000
vt 0.250000 0.250000
vt 0.250000 0.250000
vt 0.250000 0.250000
vt 0.250000 0.250000
vt 0.250000 0.250000
vt 0.250000 0.250000
vt 0.250000 0.250000
vt 0.250000 0.250000
vt 0.250000 0.250000
vt 0.250000 0.250000
vt 0.250000 0.250000
vt 0.250000 0.250000
vt 0.250000 0.250000
vt 0.250000 0.250000
vt 0.250000 0.250000
vt 0.250000 0.250000
vt 0.250000 0.250000
vn 0.0000 1.0000 0.0000
vn 0.0000 0.0000 1.0000
vn 0.0000 0.0000 -1.0000
vn 0.0000 -1.0000 0.0000
vn 1.0000 -0.0000 0.0000
vn -1.0000 0.0000 0.0000
usemtl Material
s off
f 1/1/1 3/2/1 6/3/1 8/4/1
f 20/5/2 6/6/2 3/7/2 26/8/2
f 18/9/3 1/10/3 8/11/3 19/12/3
f 9/13/4 11/14/4 7/15/4 4/16/4
f 12/17/3 10/18/3 11/14/3 9/13/3
f 6/6/5 20/5/5 21/19/5 23/20/5 19/12/5 8/11/5
f 2/21/4 5/22/4 15/23/4 14/24/4
f 3/7/6 1/10/6 18/9/6 24/25/6 22/26/6 26/8/6
f 16/27/2 14/24/2 15/23/2 13/28/2
f 5/22/5 27/29/5 13/28/5 15/23/5
f 4/16/6 17/30/6 12/17/6 9/13/6
f 23/20/4 21/19/4 22/26/4 24/25/4
f 11/14/5 10/18/5 25/31/5 7/15/5
f 2/21/3 28/32/3 27/29/3 5/22/3
f 14/24/6 16/27/6 28/32/6 2/21/6
f 7/15/2 25/31/2 17/30/2 4/16/2
