# Blender v2.80 (sub 75) OBJ File: 'door.blend'
# www.blender.org
mtllib door.mtl
o Cube
v -0.500000 0.500000 -0.500000
v -0.500000 -0.500000 -0.500000
v -0.500000 0.500000 0.500000
v -0.500000 -0.500000 0.500000
v -0.400000 -0.500000 -0.500000
v -0.400000 0.500000 0.500000
v -0.400000 -0.500000 0.500000
v -0.400000 0.500000 -0.500000
v -0.500000 -0.500000 0.300000
v -0.400000 0.350000 0.300000
v -0.400000 -0.500000 0.300000
v -0.500000 0.350000 0.300000
v -0.400000 0.350000 -0.300000
v -0.500000 -0.500000 -0.300000
v -0.400000 -0.500000 -0.300000
v -0.500000 0.350000 -0.300000
v -0.500000 0.350000 0.500000
v -0.500000 0.350000 -0.500000
v -0.400000 0.350000 -0.500000
v -0.400000 0.350000 0.500000
v -0.400000 0.350000 0.300000
v -0.500000 0.350000 0.300000
v -0.400000 0.350000 -0.300000
v -0.500000 0.350000 -0.300000
v -0.400000 0.350000 0.500000
v -0.500000 0.350000 0.500000
v -0.400000 0.350000 -0.500000
v -0.500000 0.350000 -0.500000
vt 0.060547 0.919922
vt 0.060547 0.919922
vt 0.060547 0.919922
vt 0.060547 0.919922
vt 0.060547 0.919922
vt 0.060547 0.919922
vt 0.060547 0.919922
vt 0.060547 0.919922
vt 0.060547 0.919922
vt 0.060547 0.919922
vt 0.060547 0.919922
vt 0.060547 0.919922
vt 0.060547 0.919922
vt 0.060547 0.919922
vt 0.060547 0.919922
vt 0.060547 0.919922
vt 0.060547 0.919922
vt 0.060547 0.919922
vt 0.060547 0.919922
vt 0.060547 0.919922
vt 0.060547 0.919922
vt 0.060547 0.919922
vt 0.060547 0.919922
vt 0.060547 0.919922
vt 0.060547 0.919922
vt 0.060547 0.919922
vt 0.060547 0.919922
vt 0.060547 0.919922
vn 0.0000 1.0000 0.0000
vn 0.0000 0.0000 1.0000
vn 0.0000 0.0000 -1.0000
vn 0.0000 -1.0000 0.0000
vn 1.0000 -0.0000 0.0000
vn -1.0000 0.0000 0.0000
usemtl Material
s off
f 1/1/1 3/2/1 6/3/1 8/4/1
f 20/5/2 6/3/2 3/2/2 26/6/2
f 18/7/3 1/1/3 8/4/3 19/8/3
f 9/9/4 11/10/4 7/11/4 4/12/4
f 12/13/3 10/14/3 11/10/3 9/9/3
f 6/3/5 20/5/5 21/15/5 23/16/5 19/8/5 8/4/5
f 2/17/4 5/18/4 15/19/4 14/20/4
f 3/2/6 1/1/6 18/7/6 24/21/6 22/22/6 26/6/6
f 16/23/2 14/20/2 15/19/2 13/24/2
f 5/18/5 27/25/5 13/24/5 15/19/5
f 4/12/6 17/26/6 12/13/6 9/9/6
f 23/16/4 21/15/4 22/22/4 24/21/4
f 11/10/5 10/14/5 25/27/5 7/11/5
f 2/17/3 28/28/3 27/25/3 5/18/3
f 14/20/6 16/23/6 28/28/6 2/17/6
f 7/11/2 25/27/2 17/26/2 4/12/2
