# Blender v2.80 (sub 75) OBJ File: 'inner-corner.blend'
# www.blender.org
mtllib inner-corner.mtl
o Cube
v -0.500000 0.500000 0.500000
v -0.500000 -0.500000 0.500000
v -0.400000 0.500000 0.500000
v -0.400000 -0.500000 0.500000
v -0.500000 -0.500000 0.400000
v -0.500000 0.500000 0.400000
v -0.400000 0.500000 0.400000
v -0.400000 -0.500000 0.400000
vt 0.250000 0.250000
vt 0.250000 0.250000
vt 0.250000 0.250000
vt 0.250000 0.250000
vt 0.250000 0.250000
vt 0.250000 0.250000
vt 0.250000 0.250000
vt 0.250000 0.250000
vt 0.750000 0.250000
vt 0.750000 0.250000
vt 0.750000 0.250000
vt 0.750000 0.250000
vn -1.0000 0.0000 0.0000
vn 0.0000 0.0000 1.0000
vn 0.0000 0.0000 -1.0000
vn 1.0000 0.0000 0.0000
vn 0.0000 -1.0000 0.0000
vn 0.0000 1.0000 0.0000
usemtl Material
s off
f 5/1/1 2/2/1 1/3/1 6/4/1
f 4/5/2 3/6/2 1/3/2 2/2/2
f 6/4/3 7/7/3 8/8/3 5/1/3
f 3/6/4 4/5/4 8/8/4 7/7/4
f 5/1/5 8/8/5 4/5/5 2/2/5
f 1/9/6 3/10/6 7/11/6 6/12/6
