# Blender v2.80 (sub 75) OBJ File: 'bed.blend'
# www.blender.org
mtllib bed.mtl
o Cube
v -0.316445 -0.056085 0.641151
v -0.230838 0.089659 -0.340351
v -0.230838 0.049274 -0.340351
v -0.230838 0.089659 -0.568215
v -0.230838 0.049274 -0.568215
v -0.316445 -0.056085 0.577036
v -0.254191 -0.147260 0.641151
v -0.254191 -0.147260 0.577036
v -0.316445 -0.147260 0.577036
v -0.316445 -0.147260 0.641151
v -0.254191 -0.056085 0.577036
v -0.254191 -0.056085 0.641151
v 0.316445 -0.056085 0.641151
v 0.230838 0.089659 -0.340351
v 0.230838 0.049274 -0.340351
v 0.230838 0.089659 -0.568215
v 0.230838 0.049274 -0.568215
v -0.316445 0.056085 -0.641151
v -0.316445 -0.056085 -0.641151
v -0.316445 0.056085 0.641151
v -0.316445 -0.056085 0.641151
v 0.316445 0.056085 -0.641151
v 0.316445 -0.056085 -0.641151
v 0.316445 0.056085 0.641151
v 0.316445 -0.056085 0.641151
v 0.316445 -0.056085 0.577036
v 0.254191 -0.147260 0.641151
v 0.254191 -0.147260 0.577036
v 0.316445 -0.147260 0.577036
v 0.316445 -0.147260 0.641151
v 0.254191 -0.056085 0.577036
v 0.254191 -0.056085 0.641151
v -0.316445 -0.056085 -0.577036
v -0.316445 -0.056085 -0.641151
v -0.254191 -0.147260 -0.577036
v -0.254191 -0.147260 -0.641151
v -0.316445 -0.147260 -0.641151
v -0.316445 -0.147260 -0.577036
v -0.254191 -0.056085 -0.641151
v -0.254191 -0.056085 -0.577036
v 0.316445 -0.056085 -0.577036
v 0.316445 -0.056085 -0.641151
v 0.254191 -0.147260 -0.577036
v 0.254191 -0.147260 -0.641151
v 0.316445 -0.147260 -0.641151
v 0.316445 -0.147260 -0.577036
v 0.254191 -0.056085 -0.641151
v 0.254191 -0.056085 -0.577036
v 0.316445 -0.056085 -0.274584
v -0.316445 0.056085 -0.274584
v 0.316445 0.056085 -0.274584
v -0.316445 -0.056085 -0.274584
vt 0.250000 0.750000
vt 0.250000 0.750000
vt 0.250000 0.750000
vt 0.250000 0.750000
vt 0.250000 0.750000
vt 0.250000 0.750000
vt 0.250000 0.750000
vt 0.250000 0.750000
vt 0.250000 0.250000
vt 0.250000 0.250000
vt 0.250000 0.250000
vt 0.250000 0.250000
vt 0.250000 0.250000
vt 0.250000 0.250000
vt 0.250000 0.250000
vt 0.250000 0.750000
vt 0.250000 0.750000
vt 0.250000 0.750000
vt 0.250000 0.750000
vt 0.250000 0.750000
vt 0.250000 0.750000
vt 0.250000 0.750000
vt 0.250000 0.750000
vt 0.250000 0.250000
vt 0.250000 0.250000
vt 0.250000 0.250000
vt 0.250000 0.250000
vt 0.250000 0.250000
vt 0.750000 0.750000
vt 0.750000 0.750000
vt 0.750000 0.750000
vt 0.750000 0.750000
vt 0.750000 0.750000
vt 0.750000 0.750000
vt 0.750000 0.750000
vt 0.750000 0.750000
vt 0.250000 0.750000
vt 0.250000 0.750000
vt 0.250000 0.750000
vt 0.250000 0.750000
vt 0.250000 0.250000
vt 0.250000 0.250000
vt 0.750000 0.750000
vt 0.750000 0.750000
vt 0.250000 0.750000
vt 0.250000 0.750000
vt 0.250000 0.750000
vt 0.250000 0.750000
vt 0.250000 0.750000
vt 0.250000 0.750000
vt 0.250000 0.750000
vt 0.250000 0.750000
vt 0.250000 0.750000
vt 0.250000 0.750000
vt 0.250000 0.750000
vt 0.250000 0.750000
vt 0.250000 0.750000
vt 0.250000 0.750000
vt 0.250000 0.750000
vt 0.250000 0.750000
vt 0.750000 0.750000
vt 0.750000 0.750000
vt 0.250000 0.750000
vt 0.250000 0.750000
vt 0.250000 0.250000
vt 0.250000 0.250000
vn -1.0000 0.0000 0.0000
vn 1.0000 0.0000 0.0000
vn 0.0000 0.0000 -1.0000
vn 0.0000 0.0000 1.0000
vn 0.0000 -1.0000 0.0000
vn 0.0000 1.0000 0.0000
usemtl Material
s off
f 1/1/1 6/2/1 9/3/1 10/4/1
f 11/5/2 12/6/2 7/7/2 8/8/2
f 3/9/1 2/10/1 4/11/1 5/12/1
f 17/13/3 5/12/3 4/11/3 16/14/3
f 12/6/4 1/1/4 10/4/4 7/7/4
f 9/3/5 8/8/5 7/7/5 10/4/5
f 6/2/3 11/5/3 8/8/3 9/3/3
f 2/10/6 14/15/6 16/14/6 4/11/6
f 13/16/2 30/17/2 29/18/2 26/19/2
f 31/20/1 28/21/1 27/22/1 32/23/1
f 15/24/2 17/13/2 16/14/2 14/15/2
f 50/25/6 20/26/6 24/27/6 51/28/6
f 21/29/4 25/30/4 24/31/4 20/32/4
f 49/33/2 23/34/2 22/35/2 51/36/2
f 49/37/5 25/38/5 21/39/5 52/40/5
f 52/41/1 21/42/1 20/26/1 50/25/1
f 23/34/3 19/43/3 18/44/3 22/35/3
f 32/23/4 27/22/4 30/17/4 13/16/4
f 29/18/5 30/17/5 27/22/5 28/21/5
f 26/19/3 29/18/3 28/21/3 31/20/3
f 3/9/4 15/24/4 14/15/4 2/10/4
f 33/45/1 34/46/1 37/47/1 38/48/1
f 39/49/2 40/50/2 35/51/2 36/52/2
f 40/50/4 33/45/4 38/48/4 35/51/4
f 37/47/5 36/52/5 35/51/5 38/48/5
f 34/46/3 39/49/3 36/52/3 37/47/3
f 41/53/2 46/54/2 45/55/2 42/56/2
f 47/57/1 44/58/1 43/59/1 48/60/1
f 48/60/4 43/59/4 46/54/4 41/53/4
f 45/55/5 46/54/5 43/59/5 44/58/5
f 42/56/3 45/55/3 44/58/3 47/57/3
f 19/43/1 52/61/1 50/62/1 18/44/1
f 23/63/5 49/37/5 52/40/5 19/64/5
f 25/65/2 49/66/2 51/28/2 24/27/2
f 18/44/6 50/62/6 51/36/6 22/35/6
