# Blender v2.80 (sub 75) OBJ File: 'chair.blend'
# www.blender.org
mtllib chair.mtl
o Cube
v -0.117441 -0.007576 0.100000
v -0.117441 0.015178 0.100000
v -0.117441 -0.007576 -0.100000
v -0.117441 0.015178 -0.100000
v 0.117441 -0.007576 0.100000
v 0.117441 0.015178 0.100000
v 0.117441 -0.007576 -0.100000
v 0.117441 0.015178 -0.100000
v -0.117441 0.266769 -0.135203
v -0.117441 0.262026 -0.157457
v -0.117441 -0.002834 -0.077745
v -0.117441 -0.007576 -0.100000
v 0.117441 0.266769 -0.135203
v 0.117441 0.262026 -0.157457
v 0.117441 -0.002834 -0.077745
v 0.117441 -0.007576 -0.100000
v 0.076883 -0.211459 0.077616
v 0.076883 -0.005198 0.077616
v 0.076883 -0.211459 0.056277
v 0.076883 -0.005198 0.056277
v 0.098222 -0.211459 0.077616
v 0.098222 -0.005198 0.077616
v 0.098222 -0.211459 0.056277
v 0.098222 -0.005198 0.056277
v -0.076883 -0.211459 0.077616
v -0.076883 -0.005198 0.077616
v -0.076883 -0.211459 0.056277
v -0.076883 -0.005198 0.056277
v -0.098222 -0.211459 0.077616
v -0.098222 -0.005198 0.077616
v -0.098222 -0.211459 0.056277
v -0.098222 -0.005198 0.056277
v 0.076883 -0.211459 -0.077616
v 0.076883 -0.005198 -0.077616
v 0.076883 -0.211459 -0.056277
v 0.076883 -0.005198 -0.056277
v 0.098222 -0.211459 -0.077616
v 0.098222 -0.005198 -0.077616
v 0.098222 -0.211459 -0.056277
v 0.098222 -0.005198 -0.056277
v -0.076883 -0.211459 -0.077616
v -0.076883 -0.005198 -0.077616
v -0.076883 -0.211459 -0.056277
v -0.076883 -0.005198 -0.056277
v -0.098222 -0.211459 -0.077616
v -0.098222 -0.005198 -0.077616
v -0.098222 -0.211459 -0.056277
v -0.098222 -0.005198 -0.056277
vt 0.250000 0.250000
vt 0.250000 0.250000
vt 0.250000 0.250000
vt 0.250000 0.250000
vt 0.250000 0.250000
vt 0.250000 0.250000
vt 0.250000 0.250000
vt 0.250000 0.250000
vt 0.250000 0.250000
vt 0.250000 0.250000
vt 0.250000 0.250000
vt 0.250000 0.250000
vt 0.250000 0.250000
vt 0.250000 0.250000
vt 0.250000 0.250000
vt 0.250000 0.250000
vt 0.250000 0.250000
vt 0.250000 0.250000
vt 0.250000 0.250000
vt 0.250000 0.250000
vt 0.250000 0.250000
vt 0.250000 0.250000
vt 0.250000 0.250000
vt 0.250000 0.250000
vt 0.250000 0.250000
vt 0.250000 0.250000
vt 0.250000 0.250000
vt 0.250000 0.250000
vt 0.250000 0.250000
vt 0.250000 0.250000
vt 0.250000 0.250000
vt 0.250000 0.250000
vt 0.250000 0.250000
vt 0.250000 0.250000
vt 0.250000 0.250000
vt 0.250000 0.250000
vt 0.250000 0.250000
vt 0.250000 0.250000
vt 0.250000 0.250000
vt 0.250000 0.250000
vt 0.250000 0.250000
vt 0.250000 0.250000
vt 0.250000 0.250000
vt 0.250000 0.250000
vt 0.250000 0.250000
vt 0.250000 0.250000
vt 0.250000 0.250000
vt 0.250000 0.250000
vn 0.0000 -1.0000 0.0000
vn 0.0000 0.0000 1.0000
vn 1.0000 0.0000 0.0000
vn -1.0000 0.0000 0.0000
vn 0.0000 1.0000 0.0000
vn 0.0000 0.2084 0.9780
vn 0.0000 0.9780 -0.2084
vn 0.0000 -0.2084 -0.9780
vn 0.0000 0.0000 -1.0000
usemtl Material
s off
f 3/1/1 7/2/1 5/3/1 1/4/1
f 5/3/2 6/5/2 2/6/2 1/4/2
f 7/2/3 8/7/3 6/5/3 5/3/3
f 1/4/4 2/6/4 4/8/4 3/1/4
f 8/7/5 4/8/5 2/6/5 6/5/5
f 11/9/6 15/10/6 13/11/6 9/12/6
f 13/11/7 14/13/7 10/14/7 9/12/7
f 15/10/3 16/15/3 14/13/3 13/11/3
f 9/12/4 10/14/4 12/16/4 11/9/4
f 16/15/8 12/16/8 10/14/8 14/13/8
f 17/17/4 18/18/4 20/19/4 19/20/4
f 19/20/9 20/19/9 24/21/9 23/22/9
f 23/22/3 24/21/3 22/23/3 21/24/3
f 21/24/2 22/23/2 18/18/2 17/17/2
f 19/20/1 23/22/1 21/24/1 17/17/1
f 25/25/3 27/26/3 28/27/3 26/28/3
f 27/26/9 31/29/9 32/30/9 28/27/9
f 31/29/4 29/31/4 30/32/4 32/30/4
f 29/31/2 25/25/2 26/28/2 30/32/2
f 27/26/1 25/25/1 29/31/1 31/29/1
f 33/33/4 35/34/4 36/35/4 34/36/4
f 35/34/2 39/37/2 40/38/2 36/35/2
f 39/37/3 37/39/3 38/40/3 40/38/3
f 37/39/9 33/33/9 34/36/9 38/40/9
f 35/34/1 33/33/1 37/39/1 39/37/1
f 41/41/3 42/42/3 44/43/3 43/44/3
f 43/44/2 44/43/2 48/45/2 47/46/2
f 47/46/4 48/45/4 46/47/4 45/48/4
f 45/48/9 46/47/9 42/42/9 41/41/9
f 43/44/1 47/46/1 45/48/1 41/41/1
